<svg id="Layer_1" data-name="Layer 1" xmlns="http://www.w3.org/2000/svg" viewBox="0 0 578.667 238.167">
  <defs>
    <style>
      .cls-1 {
        fill: #505050;
      }

      .cls-2 {
        fill: #f7931e;
      }

      .cls-3 {
        fill: #409fa8;
      }
    </style>
  </defs>
  <title>Fitness_Logo</title>
  <g>
    <g>
      <circle class="cls-1" cx="38.333" cy="22" r="22"/>
      <path class="cls-1" d="M57.894,103.139s-7.333,40.263,60.5,52.763c0,0-39.25-14.862-30-45,0,0,10.25-60.75,238-60.5C326.394,50.4,72.942,26.788,57.894,103.139Z" transform="translate(-21.894 -22.736)"/>
      <path class="cls-1" d="M182.561,101.428s-15.542-25.4-63.667-5.525c0,0,55.5-6.667,40,37.5,0,0-17.667,51.333-137,127.5C21.894,260.9,215.144,161.652,182.561,101.428Z" transform="translate(-21.894 -22.736)"/>
      <path class="cls-1" d="M244.394,177.152s14.75,18.25-6,21.75c0,0-19.25,4.5-68.75-19.75,0,0,73,44.75,86.5,19C256.144,198.152,260.269,188.277,244.394,177.152Z" transform="translate(-21.894 -22.736)"/>
    </g>
    <g>
      <path class="cls-2" d="M394.892,170.016q.044,4.02-2.94,9.025a2.445,2.445,0,0,1-2.183,1.349q.088,0-2.45-.155-2.139-.157-2.139-.778,0-.286.757-.57a15.423,15.423,0,0,0,3.208-8.87q-.179-1.5-2.629-1.5a7.576,7.576,0,0,0-3.029.727q-5.48,2.386-10.781,8.715-5.124,6.12-12.029,18.311a4.435,4.435,0,0,1-3.3,2.179q11.761,0,24.9.8a7.254,7.254,0,0,0,2.54-.13,6.24,6.24,0,0,0,1.113-1.219,1.47,1.47,0,0,1,1.114-.674,1.41,1.41,0,0,1,1.069.57q1.915,2.153,1.916,3.034,0,.727-1.738,1.66a7.073,7.073,0,0,1-2.9,1.012,15.966,15.966,0,0,1-2.406-.285,144.5,144.5,0,0,0-22.988-1.687q-3.432,0-6.728.156a11.306,11.306,0,0,0-2.629.285l-.847.83a3.8,3.8,0,0,1-2.762,1.141,1.388,1.388,0,0,1-1.337-.57,8.231,8.231,0,0,1-1.292-2.749q0-1.945,9.668-2.179,7.528-15.432,15.994-24.458,7.217-7.7,12.3-8.092,1.425-.13,7.4,1.53c.98-.035,1.722-.052,2.228-.052a3.807,3.807,0,0,1,2.5.519A4.025,4.025,0,0,1,394.892,170.016Z" transform="translate(-21.894 -22.736)"/>
      <path class="cls-2" d="M407.278,184.151q-1.069,3.5-5.568,11.646a25.4,25.4,0,0,0,3.563-2.464,1.035,1.035,0,0,1,.624-.233q.712,0,.179.726-.224.287-3.743,3.554a25.127,25.127,0,0,0-3.92,4.409,1.647,1.647,0,0,1-1.471.6,9.978,9.978,0,0,1-2.9-.6q-1.159-.363-1.158-.545c0-.1.162-.328.489-.674a34.857,34.857,0,0,0,5.347-8.248q2.807-5.6,3.163-8.325.133-1.167-.4-1.167a3.739,3.739,0,0,0-1.426.57l-2.763,1.5q-1.471.778-1.47.078,0-.208.4-.519a49.868,49.868,0,0,1,4.455-3.242,2.629,2.629,0,0,1,1.382-.441,6.12,6.12,0,0,1,2.094.571q2.048.311,2.272.389a1.351,1.351,0,0,1,1.024,1.349A3.754,3.754,0,0,1,407.278,184.151Zm6.282-11.36q.712.312.713.7,0,.753-3.831,2.335a9.915,9.915,0,0,1-4.9.726,8.451,8.451,0,0,1-2.316-.57,1.612,1.612,0,0,1-.468-.324q-.157-.168-.067-.272a.789.789,0,0,1,.535-.052,52.749,52.749,0,0,0,5.391-2.982,3.356,3.356,0,0,1,1.471-.675A12.529,12.529,0,0,1,413.56,172.791Z" transform="translate(-21.894 -22.736)"/>
      <path class="cls-2" d="M449.426,162.857q.668.286.668.623,0,.519-1.114.519a3.311,3.311,0,0,1-.936-.13,15.133,15.133,0,0,0-4.5-.8,7.772,7.772,0,0,0-2.629.415q-4.456,1.66-14.123,17.325,7.217.649,9.133.648,1.025,0,1.025.44,0,.494-1.025.623-5.212.571-10.6.726a134.471,134.471,0,0,0-9.534,19.53q-2.763,7.288-2.762,10.4a3.571,3.571,0,0,0,.134.791,3.653,3.653,0,0,1,.134.817c0,.276-.164.415-.49.415a13.675,13.675,0,0,1-3.163-.882q-2.985-1.012-2.585-2.387Q410.8,200.413,420.2,183.3q-3.475.129-4.188.1a1.789,1.789,0,0,1-1.292-.519,4.115,4.115,0,0,1-.489-.778q0-.39,1.425-.6,2.049-.286,4.1-.545,1.871-.311,2.183-.855,7.173-12.086,11.271-16.5,3.385-3.631,6.461-3.632Q442.609,159.978,449.426,162.857Z" transform="translate(-21.894 -22.736)"/>
      <path class="cls-2" d="M457.444,194.4q-10.827,8.067-15.237,8.066a12.115,12.115,0,0,1-5.3-1.687q-3.341-.907-3.341-2.437a2.157,2.157,0,0,1,.089-.6,29.221,29.221,0,0,1,3.252-7.858q-1.648-.494-1.648-.935,0-.362.936-.362a4.966,4.966,0,0,1,1.471.233,34.253,34.253,0,0,1,7.128-7.366,6.62,6.62,0,0,1,3.7-1.452,22.222,22.222,0,0,1,3.742.752q-.223-.778.758-.908h2.094q1.915,0,1.916.39a2.113,2.113,0,0,1-.134.44,1.968,1.968,0,0,0-.134.675q0,.933.045,2.308t.044,1.842a4.522,4.522,0,0,1-3.029,4.487,15.885,15.885,0,0,1-6.237,1.167,52.041,52.041,0,0,1-6.06-.57,10.8,10.8,0,0,0-1.692,3.138,12.444,12.444,0,0,0-1.158,5.239q.044,1.349,1.47,1.349a7.987,7.987,0,0,0,1.381-.155q5.168-1.063,14.391-6.484a2.286,2.286,0,0,1,1.158-.337q.847,0,.847.467C457.889,193.99,457.741,194.188,457.444,194.4Zm-5.213-11.464q0-1.012-.757-1.012a3.932,3.932,0,0,0-1.426.415,18.791,18.791,0,0,0-7.663,7.185q.891.078,3.118.155a10.525,10.525,0,0,0,5.392-.96,3.017,3.017,0,0,0,1.47-2.567Q452.232,187.471,452.231,182.932Z" transform="translate(-21.894 -22.736)"/>
      <path class="cls-2" d="M474.953,195.9q.135,3.113-5.925,4.254a5.355,5.355,0,0,1-1.426,1.5,6.6,6.6,0,0,1-3.03.727,21.62,21.62,0,0,1-2.762-.078l-6.46-.57q-1.069-.1-1.292-.752.179-.7,2.5-.83,3.163-.13,9.355-.648a4.885,4.885,0,0,0,3.3-1.53,2.164,2.164,0,0,0,.579-1.53q0-1.635-2.807-5.758-2.763-4.02-2.584-5.369.356-3.242,10.292-4.513.979-.129.979.415,0,.311-.713.493-4.811,1.219-4.812,3.008a4.7,4.7,0,0,0,.445,1.751q.445,1.05,2.674,5.045A10.73,10.73,0,0,1,474.953,195.9Zm7.129-14.888a11.31,11.31,0,0,1-1.069,3.735,2.312,2.312,0,0,1-.892,1.141,7.654,7.654,0,0,1-1.515.39,14.012,14.012,0,0,1-2.049.363q-.669,0-.669-.519a2.242,2.242,0,0,1,.179-.753q1.069-2.568.824-3.566t1-1.258a13.612,13.612,0,0,1,2.808-.648Q482.081,179.9,482.082,181.012Z" transform="translate(-21.894 -22.736)"/>
      <path class="cls-2" d="M508.457,168.693q1.247.39,1.247.882,0,.337-.846.337c-.119,0-.306-.013-.558-.039s-.438-.038-.557-.038q-1.693,0-4.1,2.152-2.139,1.919-5.926,8.352-.357.571-.268.674c.09.122.476.19,1.159.208q2.628.13,7.039-.1,1.513-.078,1.515.752,0,.571-1.158.7-.936.078-9.847.467-5.345,9.1-6.5,15.406a4.522,4.522,0,0,0-.045.6q0,.882.758.882,1.2,0,7.262-3.4a2.744,2.744,0,0,1,1.381-.415c.386,0,.624.095.713.285q.133.311-.4.726a58.791,58.791,0,0,1-7.084,4.721,5.417,5.417,0,0,1-2.451.8,8.608,8.608,0,0,1-3.029-.907q-2.539-.39-2.539-1.557a1.186,1.186,0,0,1,.089-.415,85.164,85.164,0,0,1,6.46-16.469q-2.361-.182-4.277-.363-.847-.078-.846-.623c0-.4.3-.639.891-.726s1.693-.276,3.3-.571a19.511,19.511,0,0,0,2.852-.777q4.767-8.585,7.484-11.127a4.84,4.84,0,0,1,3.342-1.452A17.927,17.927,0,0,1,508.457,168.693Z" transform="translate(-21.894 -22.736)"/>
      <path class="cls-2" d="M537.282,183.839q-6.192,16.626-11.628,24.873-10.515,16.028-24.147,16.028-7.975,0-17.152-5.057c-.535-.295-.8-.605-.8-.935q0-.778,1.247-.777a2.686,2.686,0,0,1,1.2.285q7.263,3.6,12.965,3.6,10.469,0,19.023-10.167,6.727-7.961,11.718-21.371.311-.959,1.024-2.931a114.331,114.331,0,0,1-10.47,8.74,60.207,60.207,0,0,1-8.777,5.706,7.115,7.115,0,0,1-2.851.856,3.327,3.327,0,0,1-1.738-.545q-.935-.7-1.915-1.375-.447-.311-.446-.57v-.052q.089-.312.8-.441,2.139-1.685,4.01-7.288a48.3,48.3,0,0,0,1.96-8.377q.089-.935-.4-.934a19.2,19.2,0,0,0-2.094.934,25.461,25.461,0,0,1-3.386,1.53q-.624,0-.624-.363,0-.182.268-.363.757-.545,3.386-2.724,2.361-1.944,3.163-1.944a6.477,6.477,0,0,1,1.693.311q2.272-.207,2.539-.207,1.515,0,1.516,1.349,0,2.256-2.229,8.831t-3.653,8.494q4.455-2.048,11.584-8.04,6.951-5.836,8.644-8.793.088-1.737,1.292-1.737a10.974,10.974,0,0,1,3.475,1.115Q537.905,182.128,537.282,183.839Z" transform="translate(-21.894 -22.736)"/>
      <path class="cls-2" d="M577.29,161.535q.579.259.579.545,0,.492-1.024.492a3.1,3.1,0,0,1-.936-.155,12.226,12.226,0,0,0-3.074-.6q-2.807,0-6.148,3.164-12.119,11.49-17.241,29.7-.135.492-.446,1.322,1.025-.623,3.03-2.022a3.666,3.666,0,0,1,1.692-.8q1.159,0,.179.8a17.618,17.618,0,0,0-5.658,7.443,1.442,1.442,0,0,1-1.248.96,2.67,2.67,0,0,1-.936-.233q-2.272-.882-2.584-1.038a1.535,1.535,0,0,1-.891-1.349,2.966,2.966,0,0,1,.223-1.011,101.421,101.421,0,0,1,13.321-28.142q6.148-8.766,11-11.359a5.329,5.329,0,0,1,2.674-.7,8.564,8.564,0,0,1,3.118.882Q575.106,160.471,577.29,161.535Z" transform="translate(-21.894 -22.736)"/>
      <path class="cls-2" d="M582.28,194.4q-10.827,8.067-15.237,8.066a12.115,12.115,0,0,1-5.3-1.687q-3.341-.907-3.341-2.437a2.157,2.157,0,0,1,.089-.6,29.221,29.221,0,0,1,3.252-7.858q-1.648-.494-1.648-.935,0-.362.936-.362a4.966,4.966,0,0,1,1.471.233,34.253,34.253,0,0,1,7.128-7.366,6.62,6.62,0,0,1,3.7-1.452,22.222,22.222,0,0,1,3.742.752q-.223-.778.758-.908h2.094q1.915,0,1.916.39a2.113,2.113,0,0,1-.134.44,1.968,1.968,0,0,0-.134.675q0,.933.045,2.308t.044,1.842a4.522,4.522,0,0,1-3.029,4.487,15.885,15.885,0,0,1-6.237,1.167,52.041,52.041,0,0,1-6.06-.57,10.8,10.8,0,0,0-1.692,3.138,12.444,12.444,0,0,0-1.158,5.239q.044,1.349,1.47,1.349a7.987,7.987,0,0,0,1.381-.155q5.168-1.063,14.391-6.484a2.286,2.286,0,0,1,1.158-.337q.847,0,.847.467C582.725,193.99,582.577,194.188,582.28,194.4Zm-5.213-11.464q0-1.012-.757-1.012a3.932,3.932,0,0,0-1.426.415,18.791,18.791,0,0,0-7.663,7.185q.891.078,3.118.155a10.525,10.525,0,0,0,5.392-.96,3.017,3.017,0,0,0,1.47-2.567Q577.068,187.471,577.067,182.932Z" transform="translate(-21.894 -22.736)"/>
    </g>
    <g>
      <polygon class="cls-3" points="213.439 82.389 216.735 70.087 248.973 70.087 248.973 52.271 201.889 52.271 178.134 145.168 199.343 134.988 208.21 101.901 231.157 101.901 241.338 82.389 213.439 82.389"/>
      <polygon class="cls-3" points="237.944 134.139 258.729 134.139 279.09 52.271 258.729 52.271 237.944 134.139"/>
      <polygon class="cls-3" points="342.718 52.271 326.848 52.271 306.487 52.271 290.225 52.271 280.999 71.678 301.56 71.678 285.702 134.139 306.487 134.139 322.022 71.678 342.718 71.678 342.718 52.271"/>
      <polygon class="cls-3" points="395.988 52.271 389.394 78.244 372.876 52.271 352.515 52.271 331.73 134.139 352.515 134.139 364.471 86.068 380.918 111.628 375.203 134.139 395.988 134.139 416.349 52.271 395.988 52.271"/>
      <polygon class="cls-3" points="450.49 101.901 460.671 82.389 433.85 82.389 436.592 71.36 466.792 71.36 466.792 52.271 441.34 52.271 420.979 52.271 400.194 134.139 420.979 134.139 448.34 134.139 456.93 116.966 425.25 116.966 428.997 101.901 450.49 101.901"/>
      <path class="cls-3" d="M519.7,99.822s-4.136-6.84,4.295-6.681l21.156.159-1.113-18.293h-24.5s-32.767,4.454-20.677,35.791l12.724,21.633s4.454,5.886-2.227,6.363H485.821l-1.432,18.081h33.564s22.429-7.105,17.339-26.989Z" transform="translate(-21.894 -22.736)"/>
      <path class="cls-3" d="M575.109,99.822s-4.136-6.84,4.295-6.681l21.156.159-1.113-18.293h-24.5s-32.767,4.454-20.677,35.791L567,132.431s4.454,5.886-2.227,6.363H541.228L539.8,156.875H573.36s22.429-7.105,17.339-26.989Z" transform="translate(-21.894 -22.736)"/>
    </g>
  </g>
</svg>
